<?xml version="1.0" encoding="utf-8"?>
<!-- Generator: Adobe Illustrator 25.0.0, SVG Export Plug-In . SVG Version: 6.00 Build 0)  -->
<svg version="1.1" id="icon-0" xmlns:svgjs="http://svgjs.dev/svgjs"
	 xmlns="http://www.w3.org/2000/svg" xmlns:xlink="http://www.w3.org/1999/xlink" x="0px" y="0px" viewBox="0 0 1000 750"
	 style="enable-background:new 0 0 1000 750;" xml:space="preserve">
<style type="text/css">
	.st0{fill:#FFFFFF;}
	.st1{display:none;fill:none;}
</style>
<g transform="matrix(0.834,0,0,0.834,82.4945493683116,222.25979228268304)">
	<g id="tight-bounds" transform="matrix(1,0,0,1,0.23999814166498368,0.05615218975954406)">
		<g>
			<g>
				<path id="o-0" class="st0" d="M613.1-41.1h9c6.6,0,12,5.8,12,13v448.9c0,7.2-5.4,13-12,13h-9c-6.6,0-12-5.8-12-13V-28.2
					C601.1-35.3,606.5-41.1,613.1-41.1z"/>
			</g>
			<g transform="matrix(1,0,0,1,0,23.584216216216205)">
				<g id="textblocktransform">
					<g>
						<g transform="matrix(1,0,0,1,0,0)">
							<path id="text-0" class="st0" d="M36.7-25.2c39.1,0,69.7,9.3,92.1,28c22.3,18.7,33.4,45.2,33.4,79.6l0,0v6.7h-50.8v-8.4
								c0-17.9-6.7-31.8-20.2-41.5c-13.5-9.7-31.3-14.6-53.4-14.6l0,0c-24.5,0-43.6,4.4-57.2,13.1c-13.7,8.8-20.5,21.4-20.5,37.9
								l0,0c0,12.3,3.9,22.4,11.7,30.3c7.7,7.8,17.4,14,29,18.5c11.5,4.5,27.5,9.5,47.9,15.1l0,0c26.3,7.5,47.5,14.8,63.8,21.9
								c16.2,7.1,30.2,17.7,41.8,31.9c11.5,14.2,17.3,33.1,17.3,56.6l0,0c0,41.8-11.8,72.4-35.5,91.6c-23.7,19.3-57,28.9-99.9,28.9
								l0,0c-42.9,0-76.1-9.8-99.8-29.5c-23.7-19.6-35.6-48-35.6-85.4l0,0l0.5-11.2h50.8l-0.5,11.8c0,21.7,7.5,37.8,22.6,48.4
								c15,10.7,35.8,16,62.4,16l0,0c25.9,0,46.4-5.2,61.5-15.5c15-10.2,22.5-24.3,22.5-42.3l0,0c0-14.2-4-25.7-12.1-34.5
								c-8.2-8.7-18.4-15.5-30.6-20.4c-12.3-4.9-29-10.3-50.1-16.3l0,0c-25.9-7.5-46.7-14.6-62.2-21.3
								c-15.6-6.7-28.9-17.1-39.9-31.2c-11.1-14-16.6-32.4-16.6-55.1l0,0c0-37,11.6-64.5,34.7-82.4C-33-16.2-2-25.2,36.7-25.2
								L36.7-25.2z M452-19.5h58.6L379.9,150.3l134.8,214.7h-59.1L347.8,192.3l-50.3,57.2v115.5h-50.8V-19.5h50.8v200.1L452-19.5z"
								/>
						</g>
					</g>
				</g>
			</g>
			<g transform="matrix(1,0,0,1,528.1418381220843,16.45422049660006)">
				<g>
					<path class="st0" d="M503.6,242.4c-17.6,0-33.7,7.3-45.8,19.2l-130.2-71.8c0.5-3.7,0.9-7.4,0.9-11.2c0-2.2-0.1-4.3-0.3-6.4
						l131.4-72.4c11.9,10.9,27.2,17.4,44,17.4c37.6,0,68.1-33,68.1-73.6S541.3-30,503.7-30c-37.6,0-68.1,33-68.1,73.6
						c0,2.2,0.1,4.5,0.3,6.6l-131.3,72.3c-11.9-11-27.3-17.6-44.1-17.6c-37.6,0-68.1,33-68.1,73.6s30.5,73.6,68.1,73.6
						c15.2,0,29.1-5.4,40.4-14.5l134.8,74.3c-0.1,1.3-0.2,2.6-0.2,3.9c0,40.7,30.5,73.6,68.1,73.6c37.6,0,68.1-33,68.1-73.6
						C571.7,275.4,541.3,242.4,503.6,242.4z"/>
				</g>
			</g>
		</g>
		<rect x="-99.2" y="-41.1" class="st1" width="1199" height="474.8"/>
	</g>
</g>
</svg>
